<svg width="184" height="132" viewBox="0 0 184 132" fill="none" xmlns="http://www.w3.org/2000/svg">
<path d="M121.306 34.8913C120.508 37.4934 119.124 41.8576 120.113 41.8576C130.332 41.8576 129.981 61.1884 130.332 61.2377C131.078 61.287 132.073 61.4873 134.49 61.8355C141.845 61.7832 145.025 61.5088 149.169 61.0868C153.132 60.6832 159.476 59.7653 162.68 58.1888C168.352 55.3984 170.779 54.1973 171.98 52.3644C173.129 50.6098 174.866 48.4814 175.015 43.8932C175.114 40.8532 175.191 35.5242 175.063 32.6091C174.913 29.1985 174.862 28.229 174.311 27.2496C172.716 24.4129 171.592 22.9655 170.525 21.7749C169.231 20.3297 168.473 18.5643 165.19 17.5423C162.948 16.8443 158.793 15.3408 154.601 15.3034C149.072 15.2541 144.925 15.5149 143.82 15.7533C141.008 16.3601 137.076 17.2415 134.052 18.5452C131.257 19.7498 128.732 21.0304 126.933 23.4309C125.888 24.8254 125.164 26.2504 124.342 27.9714C122.702 31.4015 122.019 32.5664 121.306 34.8913Z" fill="#E5E0CE" stroke="black" stroke-width="2" stroke-linecap="round"/>
<path d="M32.6401 31.4624C35.8798 31.3588 38.3902 31.3202 39.9734 31.3059C40.4846 29.1575 41.5126 26.2261 44.7851 23.4574C52.8701 22.2974 65.7197 21.5685 68.7851 24.6424C72.4501 28.3174 74.1886 39.3946 76.7751 36.1274C77.4401 35.2874 78.4239 32.6318 80.9551 31.6224C83.4501 30.6274 91.0494 27.6747 99.4752 30.6374C106.13 32.9774 108.046 39.8257 113.46 40.6374C120.13 41.6374 126.073 42.2092 127.61 46.3124L127.663 46.4539C129.196 50.5446 132.815 60.201 128.425 64.1424C126.76 65.6374 115.927 67.3907 119.94 68.9674C120.78 69.2974 124.827 70.169 128.62 73.1474C130.11 74.3174 130.602 75.3213 130.435 76.3124C130.1 78.3074 129.855 80.5958 128.425 82.3124C125.09 86.3174 121.609 93.9785 112.735 93.9674C104.75 93.9574 94.4541 86.5629 97.2802 89.6424C99.1201 91.6474 101.374 94.8073 100.43 97.3174C99.4301 99.9774 97.8318 102.123 95.2451 103.477C91.7501 105.307 81.9751 109.431 71.5551 105.617C66.0901 103.617 63.1679 99.8336 63.1001 100.827C62.7701 105.667 62.4799 111.504 59.5701 111.802C54.7402 112.297 50.6907 112.087 48.7551 111.122C43.7301 108.617 37.7312 99.08 32.7651 99.3024C32.4301 99.3174 32.1623 100.341 31.5951 101.312C30.4301 103.307 22.6215 104.593 11.7251 104.127C7.75015 103.957 6.44021 103.657 6.26515 100.062C5.77015 89.8974 6.27932 77.9404 10.4551 71.0974C12.7801 67.2874 14.7901 65.6174 16.7851 64.2874C18.7801 62.9574 26.7301 62.2974 24.2701 62.2974C23.7601 62.2974 21.4197 61.9468 19.9251 60.1174C18.4301 58.2874 16.4939 53.7051 17.9401 48.4374C19.4501 42.9374 24.6675 31.7173 32.6401 31.4624Z" fill="#E5E0CE"/>
<path d="M41.7701 31.2974C41.1101 31.2974 37.8001 31.2974 32.6401 31.4624C24.6675 31.7173 19.4501 42.9374 17.9401 48.4374C16.4939 53.7051 18.4301 58.2874 19.9251 60.1174C21.4197 61.9468 23.7601 62.2974 24.2701 62.2974C26.7301 62.2974 18.7801 62.9574 16.7851 64.2874C14.7901 65.6174 12.7801 67.2874 10.4551 71.0974C6.27932 77.9404 5.77015 89.8974 6.26515 100.062C6.44021 103.657 7.75015 103.957 11.7251 104.127C22.6215 104.593 30.4301 103.307 31.5951 101.312C32.1623 100.341 32.4301 99.3174 32.7651 99.3024C37.7312 99.08 43.7301 108.617 48.7551 111.122C50.6907 112.087 54.7401 112.297 59.5701 111.802C62.4799 111.504 62.7701 105.667 63.1001 100.827C63.1679 99.8336 66.0901 103.617 71.5551 105.617C81.9751 109.431 91.7501 105.307 95.2451 103.477C97.8318 102.123 99.4301 99.9774 100.43 97.3174C101.374 94.8073 99.1202 91.6474 97.2802 89.6424C94.4541 86.5629 104.75 93.9574 112.735 93.9674C121.609 93.9785 125.09 86.3174 128.425 82.3124C129.855 80.5958 130.1 78.3074 130.435 76.3124C130.602 75.3212 130.11 74.3174 128.62 73.1474C124.827 70.169 120.78 69.2974 119.94 68.9674C115.927 67.3907 126.76 65.6374 128.425 64.1424C132.866 60.1548 129.11 50.3174 127.61 46.3124C126.073 42.2092 120.13 41.6374 113.46 40.6374C108.046 39.8257 106.13 32.9774 99.4752 30.6374C91.0494 27.6747 83.4501 30.6274 80.9551 31.6224C78.4239 32.6318 77.4401 35.2874 76.7751 36.1274C74.1886 39.3946 72.4501 28.3174 68.7851 24.6424C65.7197 21.5685 52.8701 22.2974 44.7851 23.4574C41.4401 26.2874 40.4401 29.2874 39.9401 31.4474C39.7701 32.6174 39.7701 33.9374 39.7701 35.2974" stroke="black" stroke-width="2" stroke-linecap="round"/>
<path d="M2.78047 80.1138C4.27505 80.4142 6.29693 81.4741 6.36147 82.405C6.77003 88.2972 4.46336 87.1876 4.0135 87.1368C3.16906 86.9873 2.4696 86.7871 1.87326 86.5375C1.57285 86.3865 1.18488 86.2015 1.12896 85.43C0.981001 83.3884 0.768941 81.1682 1.73277 80.4097C1.98536 80.2109 2.38778 80.0348 2.78047 80.1138Z" fill="#E5E0CE" stroke="black" stroke-width="2" stroke-linecap="round"/>
<path d="M146.025 28.1896C146.373 27.5933 146.672 27.2974 146.869 27.2974C147.174 27.399 147.769 27.7966 147.917 28.2016C148.065 28.6066 148.065 29.2971 148.014 29.7948C147.963 30.2925 147.865 30.5884 147.46 30.7364C147.055 30.8843 146.184 31.0093 146.019 30.5795C145.674 29.6827 145.699 28.7479 146.025 28.1896Z" fill="black" stroke="black" stroke-width="2" stroke-linecap="round"/>
<path d="M159.819 27.0294C159.671 25.8846 159.871 24.5933 160.269 24.2974C160.573 24.399 161.615 24.7974 161.615 25.3989C161.615 26.2091 161.662 26.9936 161.361 27.4883C161.159 27.6871 160.863 27.7857 160.563 27.7334C160.263 27.6811 159.88 27.5033 159.819 27.0294Z" stroke="black" stroke-width="2" stroke-linecap="round"/>
<path d="M160.351 34.3071C159.56 34.4278 157.644 34.5765 156.49 34.6333C157.195 35.3387 157.169 36.0558 157.468 36.4055C157.964 37.0512 158.263 37.652 158.563 38.0451C158.765 38.1422 159.143 38.0998 159.26 37.8418C159.758 36.7433 161.595 34.1174 160.351 34.3071Z" fill="#EFA3DC"/>
<path d="M155.77 34.6569C156.556 34.6569 159.351 34.4596 160.351 34.3071C161.595 34.1174 159.758 36.7433 159.26 37.8418C159.143 38.0998 158.765 38.1422 158.563 38.0451C158.263 37.652 157.964 37.0512 157.468 36.4055C157.169 36.0558 157.195 35.3387 156.49 34.6333" stroke="black" stroke-width="2" stroke-linecap="round"/>
<path d="M113.869 25.6604C119.865 25.6183 124.052 25.6121 125.27 25.6112C124.965 25.8145 122.039 31.3921 121.738 31.5416C121.142 31.7897 120.541 32.0916 119.945 32.4383C118.748 32.8867 117.522 34.0382 115.359 33.631C114.566 33.4815 114.021 33.058 113.369 32.8329C112.07 32.3845 110.681 31.9847 109.483 31.2875C108.286 30.591 107.126 29.9055 105.896 29.4955C104.699 29.0964 103.235 28.9897 102.41 27.9486C102.212 27.6975 102.058 27.2955 102.267 27.2536C103.515 27.004 104.938 26.8001 106.504 26.457C108.1 26.1073 109.683 25.6898 113.869 25.6604Z" fill="#E5E0CE"/>
<path d="M125.629 25.6111C125.431 25.6111 120.891 25.6111 113.869 25.6604C109.683 25.6898 108.1 26.1073 106.504 26.457C104.938 26.8001 103.515 27.004 102.267 27.2536C102.058 27.2955 102.212 27.6975 102.41 27.9486C103.235 28.9897 104.699 29.0964 105.896 29.4955C107.126 29.9055 108.286 30.591 109.483 31.2875C110.681 31.9847 112.07 32.3845 113.369 32.8329C114.021 33.058 114.566 33.4815 115.359 33.631C117.522 34.0382 118.748 32.8867 119.945 32.4383C120.541 32.0916 121.142 31.7897 121.738 31.5416C122.039 31.3921 124.965 25.8145 125.27 25.6112" stroke="black" stroke-width="2" stroke-linecap="round"/>
<path d="M155.933 14.6837C155.828 14.7312 155.739 14.7696 155.668 14.7979C155.7 14.7347 155.793 14.6983 155.933 14.6837C156.95 14.2249 159.474 12.9189 161.391 11.6668C165.133 9.22224 168.965 7.2817 170.46 6.43428C172.312 5.38441 174.047 4.48984 175.492 3.79336C176.902 3.11381 178.429 2.39743 180.472 1.50218C181.211 1.17837 181.822 1.0015 182.319 1C182.543 0.999328 182.62 1.39307 182.621 1.69348C182.628 2.95444 181.627 4.08331 181.179 5.28047C180.684 6.60206 179.637 7.67029 179.136 8.91677C178.566 10.3365 177.843 11.7535 177.045 13.0523C174.921 16.508 165.492 14.1508 163.945 14.7979C163.298 15.0475 162.697 15.3464 162.101 15.7933C161.832 16.0168 157.134 14.5585 155.933 14.6837Z" fill="#E5E0CE"/>
<path d="M155.52 14.8502C155.912 14.7516 159.089 13.1703 161.391 11.6668C165.133 9.22224 168.965 7.2817 170.46 6.43428C172.312 5.38441 174.047 4.48984 175.492 3.79336C176.902 3.11381 178.429 2.39743 180.472 1.50218C181.211 1.17837 181.822 1.0015 182.319 1C182.543 0.999328 182.62 1.39307 182.621 1.69348C182.628 2.95444 181.627 4.08331 181.179 5.28047C180.684 6.60206 179.637 7.67029 179.136 8.91677C178.566 10.3365 177.843 11.7535 177.045 13.0523C174.921 16.508 165.492 14.1508 163.945 14.7979C163.298 15.0475 162.697 15.3464 162.101 15.7933C161.8 16.0429 155.973 14.1941 155.668 14.7979" stroke="black" stroke-width="2" stroke-linecap="round"/>
<path d="M163.475 46.5466C163.137 46.1849 161.885 45.728 160.639 45.3652C160.035 45.1894 158.827 45.2679 157.355 45.5339C156.492 45.9294 155.941 46.395 155.447 46.9006C155.226 47.1768 155.063 47.4931 154.929 48.1159" stroke="black" stroke-width="2" stroke-linecap="round"/>
<path d="M43.9208 106.073C43.9208 110.777 43.6176 120.608 43.0801 122.831C42.8504 125.822 42.5426 127.503 42.4668 128.879C42.391 129.497 42.2394 129.952 42.0833 130.42" stroke="black" stroke-width="2" stroke-linecap="round"/>
<path d="M59.54 112.504C59.54 112.353 59.54 112.201 59.54 115.231C59.54 118.26 59.54 124.476 59.54 130.88" stroke="black" stroke-width="2" stroke-linecap="round"/>
<path d="M92.6157 105.613V129.961" stroke="black" stroke-width="2" stroke-linecap="round"/>
<path d="M113.288 94.5881C113.288 97.1699 113.591 102.389 114.205 105.067C114.753 107.462 115.429 109.279 115.966 111.728C116.691 115.029 116.504 117.851 116.885 121.063C116.963 124.558 117.115 127.2 117.344 128.192C117.423 128.73 117.423 129.336 117.423 129.501" stroke="black" stroke-width="2" stroke-linecap="round"/>
</svg>
