<svg width="205" height="109" viewBox="0 0 205 109" fill="none" xmlns="http://www.w3.org/2000/svg">
<path d="M133.873 36.2528C131.875 38.101 130.298 41.431 129.34 41.6753C96.5 50.0424 128.152 63.3463 128.431 63.5655C129.051 63.983 129.81 64.6565 131.724 66.1724C138.109 69.8245 140.996 71.1863 144.791 72.9047C148.419 74.5476 154.365 76.9434 157.927 77.1915C164.233 77.6306 166.935 77.8122 168.894 76.8313C170.77 75.8923 173.342 74.9257 175.777 71.0342C177.39 68.4558 180.136 63.8878 181.491 61.3036C183.076 58.2801 183.519 57.416 183.535 56.2926C183.582 53.0387 183.338 51.222 183.014 49.6569C182.622 47.7569 182.854 45.8494 180.53 43.3157C178.943 41.5853 176.106 38.1967 172.501 36.0571C167.747 33.2353 164.031 31.3761 162.956 31.0267C160.219 30.1373 156.378 28.923 153.108 28.5295C150.086 28.1659 147.26 28.0034 144.498 29.1745C142.894 29.8547 141.552 30.7226 139.975 31.7968C136.834 33.9377 135.658 34.6015 133.873 36.2528Z" fill="#E5E0CE" stroke="black" stroke-width="2" stroke-linecap="round"/>
<path d="M32.64 10.0049C35.8796 9.90127 38.39 9.86272 39.9732 9.84837C40.4844 7.70002 41.5125 4.76858 44.785 1.99987C52.87 0.839866 65.7196 0.111025 68.785 3.18487C72.45 6.85987 74.1885 17.9371 76.775 14.6699C77.44 13.8299 78.4238 11.1743 80.955 10.1649C83.45 9.16987 91.0492 6.21723 99.475 9.17987C106.13 11.5199 108.046 18.3682 113.46 19.1799C120.13 20.1799 126.073 20.7517 127.61 24.8549L127.663 24.9964C129.196 29.0871 132.815 38.7435 128.425 42.6849C126.76 44.1799 115.927 45.9332 119.94 47.5099C120.78 47.8399 124.827 48.7115 128.62 51.6899C130.11 52.8599 130.601 53.8637 130.435 54.8549C130.1 56.8499 129.854 59.1383 128.425 60.8549C125.09 64.8599 121.609 72.521 112.735 72.5099C104.75 72.4999 94.454 65.1054 97.28 68.1849C99.12 70.1899 101.374 73.3497 100.43 75.8599C99.43 78.5199 97.8317 80.6655 95.245 82.0199C91.75 83.8499 81.975 87.9732 71.555 84.1599C66.09 82.1599 63.1678 78.3761 63.1 79.3699C62.77 84.2099 62.4798 90.0467 59.57 90.3449C54.74 90.8399 50.6906 90.6297 48.755 89.6649C43.73 87.1599 37.7311 77.6225 32.765 77.8449C32.43 77.8599 32.1622 78.8836 31.595 79.8549C30.43 81.8499 22.6214 83.1359 11.725 82.6699C7.75003 82.4999 6.44009 82.1998 6.26503 78.6049C5.77003 68.4399 6.2792 56.4828 10.455 49.6399C12.78 45.8299 14.79 44.1599 16.785 42.8299C18.78 41.4999 26.73 40.8399 24.27 40.8399C23.76 40.8399 21.4196 40.4893 19.925 38.6599C18.43 36.8299 16.4938 32.2476 17.94 26.9799C19.45 21.4799 24.6674 10.2598 32.64 10.0049Z" fill="#E5E0CE"/>
<path d="M41.77 9.83987C41.11 9.83987 37.8 9.83987 32.64 10.0049C24.6674 10.2598 19.45 21.4799 17.94 26.9799C16.4938 32.2476 18.43 36.8299 19.925 38.6599C21.4196 40.4893 23.76 40.8399 24.27 40.8399C26.73 40.8399 18.78 41.4999 16.785 42.8299C14.79 44.1599 12.78 45.8299 10.455 49.6399C6.2792 56.4828 5.77003 68.4399 6.26503 78.6049C6.44009 82.1998 7.75003 82.4999 11.725 82.6699C22.6214 83.1359 30.43 81.8499 31.595 79.8549C32.1622 78.8836 32.43 77.8599 32.765 77.8449C37.7311 77.6225 43.73 87.1599 48.755 89.6649C50.6906 90.6297 54.74 90.8399 59.57 90.3449C62.4798 90.0467 62.77 84.2099 63.1 79.3699C63.1678 78.3761 66.09 82.1599 71.555 84.1599C81.975 87.9732 91.75 83.8499 95.245 82.0199C97.8317 80.6655 99.43 78.5199 100.43 75.8599C101.374 73.3497 99.12 70.1899 97.28 68.1849C94.454 65.1054 104.75 72.4999 112.735 72.5099C121.609 72.521 125.09 64.8599 128.425 60.8549C129.854 59.1383 130.1 56.8499 130.435 54.8549C130.601 53.8637 130.11 52.8599 128.62 51.6899C124.827 48.7115 120.78 47.8399 119.94 47.5099C115.927 45.9332 126.76 44.1799 128.425 42.6849C132.866 38.6973 129.11 28.8599 127.61 24.8549C126.073 20.7517 120.13 20.1799 113.46 19.1799C108.046 18.3682 106.13 11.5199 99.475 9.17987C91.0492 6.21723 83.45 9.16987 80.955 10.1649C78.4238 11.1743 77.44 13.8299 76.775 14.6699C74.1885 17.9371 72.45 6.85987 68.785 3.18487C65.7195 0.111025 52.87 0.839866 44.785 1.99987C41.44 4.82987 40.44 7.82987 39.94 9.98987C39.77 11.1599 39.77 12.4799 39.77 13.8399" stroke="black" stroke-width="2" stroke-linecap="round"/>
<path d="M2.78047 58.6565C4.27505 58.9569 6.29693 60.0168 6.36147 60.9477C6.77003 66.84 4.46336 65.7303 4.0135 65.6795C3.16906 65.5301 2.4696 65.3298 1.87326 65.0802C1.57285 64.9292 1.18488 64.7442 1.12896 63.9727C0.981001 61.9311 0.768941 59.7109 1.73277 58.9524C1.98536 58.7536 2.38778 58.5776 2.78047 58.6565Z" fill="#E5E0CE" stroke="black" stroke-width="2" stroke-linecap="round"/>
<path d="M167.919 55.3757C167.175 55.0822 165.444 54.2479 164.417 53.7167C164.673 54.6811 164.289 55.2878 164.372 55.7404C164.476 56.548 164.433 57.2176 164.495 57.7084C164.62 57.8938 164.968 58.0471 165.199 57.8828C166.182 57.1834 169.09 55.8373 167.919 55.3757Z" fill="#EFA3DC"/>
<path d="M163.783 53.3752C164.463 53.7704 166.978 55.0049 167.919 55.3757C169.09 55.8373 166.182 57.1834 165.199 57.8828C164.968 58.0471 164.62 57.8938 164.495 57.7084C164.433 57.2176 164.476 56.548 164.372 55.7404C164.289 55.2878 164.673 54.6811 164.417 53.7167" stroke="black" stroke-width="2" stroke-linecap="round"/>
<path d="M140.118 20.2554C144.671 24.1563 147.836 26.8978 148.756 27.696C148.392 27.6495 142.525 29.9402 142.2 29.856C141.587 29.6521 140.936 29.4859 140.258 29.3565C139.06 28.9098 137.38 28.975 136.015 27.2493C135.514 26.6159 135.38 25.9387 135.035 25.3411C134.349 24.1507 133.563 22.9381 133.116 21.6258C132.669 20.3148 132.243 19.0366 131.583 17.9204C130.942 16.8339 129.906 15.7931 129.967 14.4667C129.982 14.1468 130.129 13.7422 130.315 13.848C131.42 14.4781 132.628 15.2576 134.036 16.0258C135.47 16.8087 136.939 17.5318 140.118 20.2554Z" fill="#E5E0CE"/>
<path d="M149.027 27.9311C148.878 27.8017 145.45 24.8235 140.118 20.2554C136.939 17.5318 135.47 16.8087 134.036 16.0258C132.628 15.2576 131.42 14.4781 130.315 13.848C130.129 13.7422 129.982 14.1468 129.967 14.4667C129.906 15.7931 130.942 16.8339 131.583 17.9204C132.243 19.0366 132.669 20.3148 133.116 21.6258C133.563 22.9381 134.349 24.1507 135.035 25.3411C135.38 25.9387 135.514 26.6159 136.015 27.2493C137.38 28.975 139.06 28.9098 140.258 29.3565C140.936 29.4859 141.587 29.6521 142.2 29.856C142.525 29.9402 148.392 27.6495 148.756 27.696" stroke="black" stroke-width="2" stroke-linecap="round"/>
<path d="M173.965 36.1914C173.85 36.1795 173.754 36.1679 173.678 36.1569C173.738 36.1183 173.836 36.1334 173.965 36.1914C175.074 36.3059 177.913 36.4459 180.199 36.327C184.663 36.095 188.952 36.344 190.67 36.3628C192.798 36.386 194.748 36.485 196.347 36.6095C197.908 36.7309 199.588 36.8791 201.804 37.1323C202.606 37.2238 203.223 37.3779 203.654 37.6268C203.847 37.7388 203.716 38.1176 203.566 38.3781C202.937 39.4713 201.505 39.9443 200.516 40.7538C199.424 41.6475 197.981 42.0444 196.922 42.8702C195.715 43.8108 194.378 44.6725 193.035 45.3941C189.462 47.3139 182.496 40.5359 180.833 40.3178C180.149 40.2082 179.479 40.1646 178.739 40.2511C178.394 40.3091 175.066 36.6866 173.965 36.1914Z" fill="#E5E0CE"/>
<path d="M173.524 36.1278C173.912 36.2393 177.454 36.4697 180.199 36.327C184.663 36.095 188.952 36.344 190.67 36.3628C192.798 36.386 194.748 36.485 196.347 36.6095C197.908 36.7309 199.588 36.8791 201.804 37.1323C202.606 37.2238 203.223 37.3779 203.654 37.6268C203.847 37.7388 203.716 38.1176 203.566 38.3781C202.937 39.4713 201.505 39.9443 200.516 40.7538C199.424 41.6475 197.981 42.0444 196.922 42.8702C195.715 43.8108 194.378 44.6725 193.035 45.3941C189.462 47.3139 182.496 40.5359 180.833 40.3178C180.149 40.2082 179.479 40.1646 178.739 40.2511C178.354 40.3158 174.246 35.7882 173.678 36.1569" stroke="black" stroke-width="2" stroke-linecap="round"/>
<path d="M157.269 62.5876C157.325 63.08 158.057 64.1938 158.84 65.2284C159.22 65.7296 160.236 66.3875 161.576 67.0528C162.504 67.25 163.225 67.2058 163.922 67.0945C164.265 67.0049 164.584 66.8483 165.063 66.4285" stroke="black" stroke-width="2" stroke-linecap="round"/>
<path d="M41.3174 83.8699C40.595 83.8699 38.4223 84.0498 35.7385 84.9562C33.6541 85.6602 32.1469 86.8631 30.4649 87.7286C28.7449 88.6137 25.8879 90.1289 23.6498 91.2725C21.7078 92.2648 19.787 93.6782 16.6588 95.3589C15.1988 96.1432 14.0622 96.5897 12.9255 97.2248C11.61 97.9598 10.6983 98.4979 10.0181 98.8605C9.69273 99.0339 9.42792 99.223 14.4166 99.3607C19.4053 99.4984 29.6607 99.5883 35.6635 99.7246C41.6663 99.8609 43.1057 100.041 47.6705 100.313C52.2352 100.586 59.8818 100.946 64.0459 101.176C68.21 101.407 68.6598 101.497 69.836 101.543C71.0123 101.589 72.9015 101.589 74.8479 101.589" stroke="black" stroke-width="2" stroke-linecap="round"/>
<path d="M48.4052 90.1396C47.5028 90.1396 44.9649 90.4995 43.4574 91.2273C41.99 91.9358 40.5977 92.9529 37.3319 95.2646C35.6746 96.4377 34.1479 97.222 31.1996 99.7599C27.3584 103.067 24.5249 104.124 22.7843 105.13C21.6482 105.787 20.8747 106.403 20.6457 106.721C20.0085 107.605 22.5948 106.861 24.1296 106.454C25.2863 106.147 27.2837 105.956 36.3546 105.817C45.4256 105.678 61.5284 105.678 69.9588 105.633C78.3891 105.588 78.659 105.498 79.3827 105.452C80.1065 105.406 81.276 105.406 83.0261 105.951" stroke="black" stroke-width="2" stroke-linecap="round"/>
<path d="M108.378 72.9656C108.378 73.9606 108.198 75.5935 104.893 82.9321C103.752 85.4661 103.292 86.7703 102.475 88.4073C101.617 90.1278 100.931 92.5878 100.248 93.9058C99.9569 94.4675 99.8377 95.0439 99.8363 95.4528C99.8317 96.8442 103.193 94.0489 104.375 93.4587C105.984 92.6554 111.513 91.5137 115.956 90.2338C118.774 89.4216 121.365 88.6895 125.31 87.5991C128.206 86.7984 132.264 85.7835 133.772 85.2342C135.058 84.7656 135.909 84.5977 136.498 84.4614C136.812 84.3887 137.177 84.415 137.362 84.7749C137.637 86.9557 137.91 87.9562 138.046 88.5C138.092 88.774 138.092 89.0439 138.365 89.8671" stroke="black" stroke-width="2" stroke-linecap="round"/>
<path d="M118.737 73.2383C118.737 75.2256 118.558 78.6795 117.652 81.4478C115.901 86.8048 114.834 88.8586 114.377 90.407C113.953 91.8462 113.471 93.313 113.014 94.4975C112.808 95.0324 112.65 95.5892 112.649 96.0431C112.648 96.2474 113.007 96.3171 113.326 96.2285C114.941 95.78 116.006 94.7742 118.772 94.0954C120.874 93.5793 124.168 93.0513 126.907 92.3684C128.911 91.8689 130.181 91.5029 131.544 91.0054C133.499 90.2919 136.266 89.6873 139.759 88.6446C142.212 87.9126 143.719 87.7791 144.904 87.4152C145.452 87.2468 145.995 87.0512 146.449 87.0499C146.633 87.1385 146.723 87.4083 146.77 88.267C146.816 89.1258 146.816 90.5651 146.816 92.0481" stroke="black" stroke-width="2" stroke-linecap="round"/>
<path d="M155.903 43.7556C156.129 43.7556 157.264 43.7556 158.975 43.8122C160.009 43.9818 160.698 44.3245 161.325 44.8369C161.613 45.123 161.839 45.4623 162.415 46.1546" stroke="black" stroke-width="2" stroke-linecap="round"/>
<path d="M169.269 49.239C169.495 49.239 170.403 49.239 171.772 49.2956C172.689 49.4652 173.378 49.8079 174.062 50.3203C174.406 50.6064 174.745 50.9457 175.78 51.9807" stroke="black" stroke-width="2" stroke-linecap="round"/>
</svg>
